<svg id="visual" viewBox="0 0 1440 1024" width="1440" height="1024" xmlns="http://www.w3.org/2000/svg" xmlns:xlink="http://www.w3.org/1999/xlink" version="1.1"><rect x="0" y="0" width="1440" height="1024" fill="#000"></rect><defs><linearGradient id="grad1_0" x1="28.9%" y1="0%" x2="100%" y2="100%"><stop offset="21.875%" stop-color="#000000" stop-opacity="1"></stop><stop offset="78.125%" stop-color="#000000" stop-opacity="1"></stop></linearGradient></defs><defs><linearGradient id="grad2_0" x1="0%" y1="0%" x2="71.1%" y2="100%"><stop offset="21.875%" stop-color="#000000" stop-opacity="1"></stop><stop offset="78.125%" stop-color="#000000" stop-opacity="1"></stop></linearGradient></defs><g transform="translate(1440, 0)"><path d="M0 485.9C-62.1 467.5 -124.1 449 -173.4 418.5C-222.6 388 -258.9 345.5 -307.6 307.6C-356.2 269.7 -417.2 236.4 -448.9 186C-480.7 135.5 -483.3 67.7 -485.9 0L0 0Z" fill="#26292c"></path></g><g transform="translate(0, 1024)"><path d="M0 -485.9C66.2 -481.2 132.3 -476.4 186 -448.9C239.6 -421.4 280.7 -371.1 325.3 -325.3C369.9 -279.4 418 -237.9 445.3 -184.5C472.7 -131 479.3 -65.5 485.9 0L0 0Z" fill="#26292c"></path></g></svg>